<svg width="111" height="47" viewBox="0 0 111 47" fill="none" xmlns="http://www.w3.org/2000/svg">
<path d="M60.396 37.568C60.476 37.496 60.576 37.42 60.696 37.34C60.816 37.252 60.936 37.168 61.056 37.088C61.184 37 61.312 36.924 61.44 36.86C61.568 36.788 61.68 36.736 61.776 36.704L62.064 36.608L62.544 38.096L62.256 38.192C62.152 38.224 62.032 38.248 61.896 38.264C61.76 38.28 61.616 38.292 61.464 38.3C61.312 38.3 61.164 38.3 61.02 38.3C60.876 38.3 60.748 38.3 60.636 38.3C60.732 38.364 60.836 38.44 60.948 38.528C61.068 38.608 61.184 38.696 61.296 38.792C61.416 38.88 61.528 38.972 61.632 39.068C61.736 39.164 61.82 39.256 61.884 39.344L62.076 39.596L60.804 40.496L60.624 40.256C60.56 40.176 60.496 40.072 60.432 39.944C60.376 39.816 60.32 39.684 60.264 39.548C60.208 39.404 60.16 39.264 60.12 39.128C60.08 38.992 60.044 38.868 60.012 38.756C59.98 38.868 59.944 38.992 59.904 39.128C59.864 39.264 59.816 39.404 59.76 39.548C59.704 39.684 59.644 39.816 59.58 39.944C59.524 40.072 59.464 40.176 59.4 40.256L59.22 40.496L57.948 39.596L58.14 39.344C58.204 39.256 58.288 39.164 58.392 39.068C58.496 38.972 58.604 38.88 58.716 38.792C58.836 38.696 58.952 38.608 59.064 38.528C59.184 38.44 59.292 38.364 59.388 38.3C59.276 38.3 59.148 38.3 59.004 38.3C58.86 38.3 58.712 38.3 58.56 38.3C58.408 38.292 58.264 38.28 58.128 38.264C57.992 38.248 57.872 38.224 57.768 38.192L57.48 38.096L57.96 36.608L58.248 36.704C58.344 36.736 58.456 36.788 58.584 36.86C58.712 36.924 58.836 37 58.956 37.088C59.084 37.168 59.204 37.252 59.316 37.34C59.436 37.42 59.54 37.496 59.628 37.568C59.588 37.464 59.544 37.344 59.496 37.208C59.456 37.064 59.416 36.92 59.376 36.776C59.336 36.632 59.3 36.492 59.268 36.356C59.244 36.212 59.232 36.088 59.232 35.984V35.684H60.792V35.984C60.792 36.088 60.776 36.212 60.744 36.356C60.72 36.492 60.688 36.632 60.648 36.776C60.608 36.92 60.564 37.064 60.516 37.208C60.476 37.344 60.436 37.464 60.396 37.568ZM70.4194 37.568C70.4994 37.496 70.5994 37.42 70.7194 37.34C70.8394 37.252 70.9594 37.168 71.0794 37.088C71.2074 37 71.3354 36.924 71.4634 36.86C71.5914 36.788 71.7034 36.736 71.7994 36.704L72.0874 36.608L72.5674 38.096L72.2794 38.192C72.1754 38.224 72.0554 38.248 71.9194 38.264C71.7834 38.28 71.6394 38.292 71.4874 38.3C71.3354 38.3 71.1874 38.3 71.0434 38.3C70.8994 38.3 70.7714 38.3 70.6594 38.3C70.7554 38.364 70.8594 38.44 70.9714 38.528C71.0914 38.608 71.2074 38.696 71.3194 38.792C71.4394 38.88 71.5514 38.972 71.6554 39.068C71.7594 39.164 71.8434 39.256 71.9074 39.344L72.0994 39.596L70.8274 40.496L70.6474 40.256C70.5834 40.176 70.5194 40.072 70.4554 39.944C70.3994 39.816 70.3434 39.684 70.2874 39.548C70.2314 39.404 70.1834 39.264 70.1434 39.128C70.1034 38.992 70.0674 38.868 70.0354 38.756C70.0034 38.868 69.9674 38.992 69.9274 39.128C69.8874 39.264 69.8394 39.404 69.7834 39.548C69.7274 39.684 69.6674 39.816 69.6034 39.944C69.5474 40.072 69.4874 40.176 69.4234 40.256L69.2434 40.496L67.9714 39.596L68.1634 39.344C68.2274 39.256 68.3114 39.164 68.4154 39.068C68.5194 38.972 68.6274 38.88 68.7394 38.792C68.8594 38.696 68.9754 38.608 69.0874 38.528C69.2074 38.44 69.3154 38.364 69.4114 38.3C69.2994 38.3 69.1714 38.3 69.0274 38.3C68.8834 38.3 68.7354 38.3 68.5834 38.3C68.4314 38.292 68.2874 38.28 68.1514 38.264C68.0154 38.248 67.8954 38.224 67.7914 38.192L67.5034 38.096L67.9834 36.608L68.2714 36.704C68.3674 36.736 68.4794 36.788 68.6074 36.86C68.7354 36.924 68.8594 37 68.9794 37.088C69.1074 37.168 69.2274 37.252 69.3394 37.34C69.4594 37.42 69.5634 37.496 69.6514 37.568C69.6114 37.464 69.5674 37.344 69.5194 37.208C69.4794 37.064 69.4394 36.92 69.3994 36.776C69.3594 36.632 69.3234 36.492 69.2914 36.356C69.2674 36.212 69.2554 36.088 69.2554 35.984V35.684H70.8154V35.984C70.8154 36.088 70.7994 36.212 70.7674 36.356C70.7434 36.492 70.7114 36.632 70.6714 36.776C70.6314 36.92 70.5874 37.064 70.5394 37.208C70.4994 37.344 70.4594 37.464 70.4194 37.568ZM80.4429 37.568C80.5229 37.496 80.6229 37.42 80.7429 37.34C80.8629 37.252 80.9829 37.168 81.1029 37.088C81.2309 37 81.3589 36.924 81.4869 36.86C81.6149 36.788 81.7269 36.736 81.8229 36.704L82.1109 36.608L82.5909 38.096L82.3029 38.192C82.1989 38.224 82.0789 38.248 81.9429 38.264C81.8069 38.28 81.6629 38.292 81.5109 38.3C81.3589 38.3 81.2109 38.3 81.0669 38.3C80.9229 38.3 80.7949 38.3 80.6829 38.3C80.7789 38.364 80.8829 38.44 80.9949 38.528C81.1149 38.608 81.2309 38.696 81.3429 38.792C81.4629 38.88 81.5749 38.972 81.6789 39.068C81.7829 39.164 81.8669 39.256 81.9309 39.344L82.1229 39.596L80.8509 40.496L80.6709 40.256C80.6069 40.176 80.5429 40.072 80.4789 39.944C80.4229 39.816 80.3669 39.684 80.3109 39.548C80.2549 39.404 80.2069 39.264 80.1669 39.128C80.1269 38.992 80.0909 38.868 80.0589 38.756C80.0269 38.868 79.9909 38.992 79.9509 39.128C79.9109 39.264 79.8629 39.404 79.8069 39.548C79.7509 39.684 79.6909 39.816 79.6269 39.944C79.5709 40.072 79.5109 40.176 79.4469 40.256L79.2669 40.496L77.9949 39.596L78.1869 39.344C78.2509 39.256 78.3349 39.164 78.4389 39.068C78.5429 38.972 78.6509 38.88 78.7629 38.792C78.8829 38.696 78.9989 38.608 79.1109 38.528C79.2309 38.44 79.3389 38.364 79.4349 38.3C79.3229 38.3 79.1949 38.3 79.0509 38.3C78.9069 38.3 78.7589 38.3 78.6069 38.3C78.4549 38.292 78.3109 38.28 78.1749 38.264C78.0389 38.248 77.9189 38.224 77.8149 38.192L77.5269 38.096L78.0069 36.608L78.2949 36.704C78.3909 36.736 78.5029 36.788 78.6309 36.86C78.7589 36.924 78.8829 37 79.0029 37.088C79.1309 37.168 79.2509 37.252 79.3629 37.34C79.4829 37.42 79.5869 37.496 79.6749 37.568C79.6349 37.464 79.5909 37.344 79.5429 37.208C79.5029 37.064 79.4629 36.92 79.4229 36.776C79.3829 36.632 79.3469 36.492 79.3149 36.356C79.2909 36.212 79.2789 36.088 79.2789 35.984V35.684H80.8389V35.984C80.8389 36.088 80.8229 36.212 80.7909 36.356C80.7669 36.492 80.7349 36.632 80.6949 36.776C80.6549 36.92 80.6109 37.064 80.5629 37.208C80.5229 37.344 80.4829 37.464 80.4429 37.568Z" fill="#F78C62"/>
<path d="M9.504 9.052C9.936 9.844 10.428 10.828 10.98 12.004C11.556 13.156 12.144 14.416 12.744 15.784C13.368 17.128 13.98 18.508 14.58 19.924C15.18 21.34 15.744 22.672 16.272 23.92C16.8 22.672 17.364 21.34 17.964 19.924C18.564 18.508 19.164 17.128 19.764 15.784C20.388 14.416 20.976 13.156 21.528 12.004C22.104 10.828 22.608 9.844 23.04 9.052H28.152C28.392 10.708 28.608 12.568 28.8 14.632C29.016 16.672 29.196 18.808 29.34 21.04C29.508 23.248 29.652 25.468 29.772 27.7C29.916 29.932 30.036 32.032 30.132 34H24.66C24.588 31.576 24.492 28.936 24.372 26.08C24.252 23.224 24.072 20.344 23.832 17.44C23.4 18.448 22.92 19.564 22.392 20.788C21.864 22.012 21.336 23.236 20.808 24.46C20.304 25.684 19.812 26.86 19.332 27.988C18.852 29.092 18.444 30.04 18.108 30.832H14.184C13.848 30.04 13.44 29.092 12.96 27.988C12.48 26.86 11.976 25.684 11.448 24.46C10.944 23.236 10.428 22.012 9.9 20.788C9.372 19.564 8.892 18.448 8.46 17.44C8.22 20.344 8.04 23.224 7.92 26.08C7.8 28.936 7.704 31.576 7.632 34H2.16C2.256 32.032 2.364 29.932 2.484 27.7C2.628 25.468 2.772 23.248 2.916 21.04C3.084 18.808 3.264 16.672 3.456 14.632C3.672 12.568 3.9 10.708 4.14 9.052H9.504ZM47.6406 15.064C46.5606 18.712 45.4326 22.132 44.2566 25.324C43.0806 28.516 41.7966 31.612 40.4046 34.612C39.9006 35.692 39.3966 36.604 38.8926 37.348C38.3886 38.116 37.8366 38.74 37.2366 39.22C36.6366 39.724 35.9526 40.084 35.1846 40.3C34.4406 40.54 33.5646 40.66 32.5566 40.66C31.7166 40.66 30.9366 40.576 30.2166 40.408C29.5206 40.264 28.9446 40.096 28.4886 39.904L29.4246 35.62C29.9766 35.812 30.4686 35.944 30.9006 36.016C31.3326 36.088 31.7886 36.124 32.2686 36.124C33.2286 36.124 33.9606 35.86 34.4646 35.332C34.9926 34.828 35.4366 34.12 35.7966 33.208C34.5726 30.808 33.3486 28.12 32.1246 25.144C30.9006 22.144 29.7486 18.784 28.6686 15.064H34.3566C34.5966 16 34.8726 17.02 35.1846 18.124C35.5206 19.204 35.8686 20.308 36.2286 21.436C36.5886 22.54 36.9486 23.62 37.3086 24.676C37.6926 25.732 38.0526 26.692 38.3886 27.556C38.7006 26.692 39.0246 25.732 39.3606 24.676C39.6966 23.62 40.0206 22.54 40.3326 21.436C40.6686 20.308 40.9806 19.204 41.2686 18.124C41.5806 17.02 41.8566 16 42.0966 15.064H47.6406Z" fill="url(#paint0_linear_11588_67)"/>
<path d="M58.6481 24.676C58.6481 23.02 58.2761 21.7 57.5321 20.716C56.7881 19.708 55.6841 19.204 54.2201 19.204C53.7401 19.204 53.2961 19.228 52.8881 19.276C52.4801 19.3 52.1441 19.336 51.8801 19.384V29.068C52.2161 29.284 52.6481 29.464 53.1761 29.608C53.7281 29.752 54.2801 29.824 54.8321 29.824C57.3761 29.824 58.6481 28.108 58.6481 24.676ZM64.1201 24.532C64.1201 25.996 63.9401 27.328 63.5801 28.528C63.2201 29.728 62.6921 30.76 61.9961 31.624C61.3001 32.488 60.4361 33.16 59.4041 33.64C58.3721 34.12 57.1841 34.36 55.8401 34.36C55.0961 34.36 54.4001 34.288 53.7521 34.144C53.1041 34 52.4801 33.796 51.8801 33.532V40.66H46.5161V15.712C46.9961 15.568 47.5481 15.436 48.1721 15.316C48.7961 15.172 49.4441 15.052 50.1161 14.956C50.8121 14.86 51.5081 14.788 52.2041 14.74C52.9241 14.668 53.6081 14.632 54.2561 14.632C55.8161 14.632 57.2081 14.872 58.4321 15.352C59.6561 15.808 60.6881 16.468 61.5281 17.332C62.3681 18.172 63.0041 19.204 63.4361 20.428C63.8921 21.652 64.1201 23.02 64.1201 24.532ZM71.4787 30.256C72.0067 30.256 72.5107 30.244 72.9907 30.22C73.4707 30.196 73.8547 30.16 74.1427 30.112V26.044C73.9267 25.996 73.6027 25.948 73.1707 25.9C72.7387 25.852 72.3427 25.828 71.9827 25.828C71.4787 25.828 70.9987 25.864 70.5427 25.936C70.1107 25.984 69.7267 26.092 69.3907 26.26C69.0547 26.428 68.7907 26.656 68.5987 26.944C68.4067 27.232 68.3107 27.592 68.3107 28.024C68.3107 28.864 68.5867 29.452 69.1387 29.788C69.7147 30.1 70.4947 30.256 71.4787 30.256ZM71.0467 14.56C72.6307 14.56 73.9507 14.74 75.0067 15.1C76.0627 15.46 76.9027 15.976 77.5267 16.648C78.1747 17.32 78.6307 18.136 78.8947 19.096C79.1587 20.056 79.2907 21.124 79.2907 22.3V33.46C78.5227 33.628 77.4547 33.82 76.0867 34.036C74.7187 34.276 73.0627 34.396 71.1187 34.396C69.8947 34.396 68.7787 34.288 67.7707 34.072C66.7867 33.856 65.9347 33.508 65.2147 33.028C64.4947 32.524 63.9427 31.876 63.5587 31.084C63.1747 30.292 62.9827 29.32 62.9827 28.168C62.9827 27.064 63.1987 26.128 63.6307 25.36C64.0867 24.592 64.6867 23.98 65.4307 23.524C66.1747 23.068 67.0267 22.744 67.9867 22.552C68.9467 22.336 69.9427 22.228 70.9747 22.228C71.6707 22.228 72.2827 22.264 72.8107 22.336C73.3627 22.384 73.8067 22.456 74.1427 22.552V22.048C74.1427 21.136 73.8667 20.404 73.3147 19.852C72.7627 19.3 71.8027 19.024 70.4347 19.024C69.5227 19.024 68.6227 19.096 67.7347 19.24C66.8467 19.36 66.0787 19.54 65.4307 19.78L64.7467 15.46C65.0587 15.364 65.4427 15.268 65.8987 15.172C66.3787 15.052 66.8947 14.956 67.4467 14.884C67.9987 14.788 68.5747 14.716 69.1747 14.668C69.7987 14.596 70.4227 14.56 71.0467 14.56ZM85.5771 30.148C86.5611 30.148 87.2571 30.052 87.6651 29.86C88.0731 29.668 88.2771 29.296 88.2771 28.744C88.2771 28.312 88.0131 27.94 87.4851 27.628C86.9571 27.292 86.1531 26.92 85.0731 26.512C84.2331 26.2 83.4651 25.876 82.7691 25.54C82.0971 25.204 81.5211 24.808 81.0411 24.352C80.5611 23.872 80.1891 23.308 79.9251 22.66C79.6611 22.012 79.5291 21.232 79.5291 20.32C79.5291 18.544 80.1891 17.14 81.5091 16.108C82.8291 15.076 84.6411 14.56 86.9451 14.56C88.0971 14.56 89.2011 14.668 90.2571 14.884C91.3131 15.076 92.1531 15.292 92.7771 15.532L91.8411 19.708C91.2171 19.492 90.5331 19.3 89.7891 19.132C89.0691 18.964 88.2531 18.88 87.3411 18.88C85.6611 18.88 84.8211 19.348 84.8211 20.284C84.8211 20.5 84.8571 20.692 84.9291 20.86C85.0011 21.028 85.1451 21.196 85.3611 21.364C85.5771 21.508 85.8651 21.676 86.2251 21.868C86.6091 22.036 87.0891 22.228 87.6651 22.444C88.8411 22.876 89.8131 23.308 90.5811 23.74C91.3491 24.148 91.9491 24.604 92.3811 25.108C92.8371 25.588 93.1491 26.128 93.3171 26.728C93.5091 27.328 93.6051 28.024 93.6051 28.816C93.6051 30.688 92.8971 32.104 91.4811 33.064C90.0891 34.024 88.1091 34.504 85.5411 34.504C83.8611 34.504 82.4571 34.36 81.3291 34.072C80.2251 33.784 79.4571 33.544 79.0251 33.352L79.9251 28.996C80.8371 29.356 81.7731 29.644 82.7331 29.86C83.6931 30.052 84.6411 30.148 85.5771 30.148ZM99.0498 30.148C100.034 30.148 100.73 30.052 101.138 29.86C101.546 29.668 101.75 29.296 101.75 28.744C101.75 28.312 101.486 27.94 100.958 27.628C100.43 27.292 99.6258 26.92 98.5458 26.512C97.7058 26.2 96.9378 25.876 96.2418 25.54C95.5698 25.204 94.9938 24.808 94.5138 24.352C94.0338 23.872 93.6618 23.308 93.3978 22.66C93.1338 22.012 93.0018 21.232 93.0018 20.32C93.0018 18.544 93.6618 17.14 94.9818 16.108C96.3018 15.076 98.1138 14.56 100.418 14.56C101.57 14.56 102.674 14.668 103.73 14.884C104.786 15.076 105.626 15.292 106.25 15.532L105.314 19.708C104.69 19.492 104.006 19.3 103.262 19.132C102.542 18.964 101.726 18.88 100.814 18.88C99.1338 18.88 98.2938 19.348 98.2938 20.284C98.2938 20.5 98.3298 20.692 98.4018 20.86C98.4738 21.028 98.6178 21.196 98.8338 21.364C99.0498 21.508 99.3378 21.676 99.6978 21.868C100.082 22.036 100.562 22.228 101.138 22.444C102.314 22.876 103.286 23.308 104.054 23.74C104.822 24.148 105.422 24.604 105.854 25.108C106.31 25.588 106.622 26.128 106.79 26.728C106.982 27.328 107.078 28.024 107.078 28.816C107.078 30.688 106.37 32.104 104.954 33.064C103.562 34.024 101.582 34.504 99.0138 34.504C97.3338 34.504 95.9298 34.36 94.8018 34.072C93.6978 33.784 92.9298 33.544 92.4978 33.352L93.3978 28.996C94.3098 29.356 95.2458 29.644 96.2058 29.86C97.1658 30.052 98.1138 30.148 99.0498 30.148Z" fill="url(#paint1_linear_11588_67)"/>
<defs>
<linearGradient id="paint0_linear_11588_67" x1="55.5" y1="3.8805e-08" x2="55.5808" y2="69.3272" gradientUnits="userSpaceOnUse">
<stop stop-color="#F84102"/>
<stop offset="0.9999" stop-color="#FFD18C" stop-opacity="0.583333"/>
</linearGradient>
<linearGradient id="paint1_linear_11588_67" x1="55.5" y1="3.41323e-08" x2="55.923" y2="53.672" gradientUnits="userSpaceOnUse">
<stop stop-color="#4B4B4B"/>
</linearGradient>
</defs>
</svg>
